<svg xmlns="http://www.w3.org/2000/svg" width="32" height="32" enable-background="new 0 0 32 32" viewBox="0 0 32 32"><path fill="#263238" d="M5.5,28C4.122,28,3,26.879,3,25.5v-14C3,11.224,3.224,11,3.5,11h2C5.776,11,6,11.224,6,11.5
		S5.776,12,5.5,12H4v13.5C4,26.327,4.673,27,5.5,27C5.776,27,6,27.224,6,27.5S5.776,28,5.5,28z"/><path fill="#263238" d="M5.5,28C5.224,28,5,27.776,5,27.5S5.224,27,5.5,27C6.327,27,7,26.327,7,25.5v-22C7,3.224,7.224,3,7.5,3
		S8,3.224,8,3.5v22C8,26.879,6.878,28,5.5,28z"/><path fill="#263238" d="M5.5,30C3.019,30,1,27.981,1,25.5v-13C1,12.224,1.224,12,1.5,12S2,12.224,2,12.5v13C2,27.43,3.57,29,5.5,29
		C5.776,29,6,29.224,6,29.5S5.776,30,5.5,30z"/><path fill="#263238" d="M26.5,30h-21C5.224,30,5,29.776,5,29.5S5.224,29,5.5,29C7.43,29,9,27.43,9,25.5v-23C9,2.224,9.224,2,9.5,2
		h21C30.776,2,31,2.224,31,2.5v23C31,27.981,28.981,30,26.5,30z M8.326,29H26.5c1.93,0,3.5-1.57,3.5-3.5V3H10v22.5
		C10,26.912,9.346,28.175,8.326,29z"/><path fill="#263238" d="M23.998,10c-0.207,0-0.395-0.128-0.468-0.324l-1.5-4c-0.097-0.259,0.034-0.547,0.292-0.644
			c0.258-0.101,0.547,0.033,0.644,0.292l0.885,2.361l0.457-2.284c0.054-0.271,0.318-0.449,0.588-0.392
			c0.271,0.054,0.446,0.317,0.392,0.589l-0.801,4c-0.044,0.219-0.228,0.382-0.45,0.399C24.025,9.999,24.011,10,23.998,10z"/><path fill="#263238" d="M20.998 10c-.013 0-.027-.001-.041-.002-.223-.018-.406-.182-.45-.4l-.797-4c-.054-.271.122-.534.393-.588.27-.057.534.121.588.393l.454 2.28.884-2.358c.097-.259.385-.393.644-.292.258.097.389.385.292.644l-1.5 4C21.393 9.872 21.205 10 20.998 10zM14.5 10c-.163 0-.32-.08-.415-.221L12 6.689V9.5c0 .276-.224.5-.5.5S11 9.776 11 9.5v-4C11 5.224 11.224 5 11.5 5h.301c.166 0 .321.083.415.221L14 7.865V5.5C14 5.224 14.224 5 14.5 5S15 5.224 15 5.5v4c0 .22-.144.414-.354.479C14.598 9.993 14.549 10 14.5 10zM18.5 10h-2C16.224 10 16 9.776 16 9.5v-4C16 5.224 16.224 5 16.5 5h2C18.776 5 19 5.224 19 5.5S18.776 6 18.5 6H17v3h1.5C18.776 9 19 9.224 19 9.5S18.776 10 18.5 10z"/><path fill="#263238" d="M18 8h-1.5C16.224 8 16 7.776 16 7.5S16.224 7 16.5 7H18c.276 0 .5.224.5.5S18.276 8 18 8zM27.5 10c-.827 0-1.505-.469-1.813-1.255-.101-.257.026-.547.283-.648.256-.1.548.025.648.283C26.729 8.663 26.972 9 27.5 9c.361 0 .529-.34.529-.57 0-.198-.172-.313-.688-.555-.33-.154-.703-.33-.965-.629-.358-.408-.455-1.001-.239-1.478C26.358 5.28 26.842 5 27.465 5c.801 0 1.223.451 1.269.502.183.207.164.523-.042.706-.204.182-.514.166-.698-.033C27.976 6.158 27.804 6 27.465 6c-.153 0-.349.031-.417.181-.055.121-.021.291.079.405.125.143.387.266.639.384.533.251 1.263.593 1.263 1.46C29.029 9.185 28.445 10 27.5 10zM27.5 26h-6c-.276 0-.5-.224-.5-.5s.224-.5.5-.5h6c.276 0 .5.224.5.5S27.776 26 27.5 26zM18.5 26h-6c-.276 0-.5-.224-.5-.5s.224-.5.5-.5h6c.276 0 .5.224.5.5S18.776 26 18.5 26zM27.5 24h-6c-.276 0-.5-.224-.5-.5s.224-.5.5-.5h6c.276 0 .5.224.5.5S27.776 24 27.5 24zM18.5 24h-6c-.276 0-.5-.224-.5-.5s.224-.5.5-.5h6c.276 0 .5.224.5.5S18.776 24 18.5 24zM27.5 22h-6c-.276 0-.5-.224-.5-.5s.224-.5.5-.5h6c.276 0 .5.224.5.5S27.776 22 27.5 22zM18.5 22h-6c-.276 0-.5-.224-.5-.5s.224-.5.5-.5h6c.276 0 .5.224.5.5S18.776 22 18.5 22zM27.5 20h-6c-.276 0-.5-.224-.5-.5s.224-.5.5-.5h6c.276 0 .5.224.5.5S27.776 20 27.5 20zM18.5 20h-6c-.276 0-.5-.224-.5-.5s.224-.5.5-.5h6c.276 0 .5.224.5.5S18.776 20 18.5 20zM27.5 18h-6c-.276 0-.5-.224-.5-.5s.224-.5.5-.5h6c.276 0 .5.224.5.5S27.776 18 27.5 18zM18.5 18h-6c-.276 0-.5-.224-.5-.5s.224-.5.5-.5h6c.276 0 .5.224.5.5S18.776 18 18.5 18zM27.5 16h-6c-.276 0-.5-.224-.5-.5s.224-.5.5-.5h6c.276 0 .5.224.5.5S27.776 16 27.5 16zM18.5 16h-6c-.276 0-.5-.224-.5-.5s.224-.5.5-.5h6c.276 0 .5.224.5.5S18.776 16 18.5 16zM27.5 14h-6c-.276 0-.5-.224-.5-.5s.224-.5.5-.5h6c.276 0 .5.224.5.5S27.776 14 27.5 14zM18.5 14h-6c-.276 0-.5-.224-.5-.5s.224-.5.5-.5h6c.276 0 .5.224.5.5S18.776 14 18.5 14z"/></svg>